<?xml version="1.0" standalone="no"?>
<!DOCTYPE svg PUBLIC "-//W3C//DTD SVG 20010904//EN"
 "http://www.w3.org/TR/2001/REC-SVG-20010904/DTD/svg10.dtd">
<svg version="1.0" xmlns="http://www.w3.org/2000/svg"
 width="500.000000pt" height="500.000000pt" viewBox="0 0 500.000000 500.000000"
 preserveAspectRatio="xMidYMid meet">

<g transform="translate(0.000000,500.000000) scale(0.100000,-0.100000)"
fill="#000000" stroke="none">
<path d="M2215 4710 c-231 -32 -457 -89 -620 -158 -61 -26 -237 -113 -265
-132 -14 -9 -61 -41 -105 -70 -44 -29 -111 -77 -150 -106 -91 -68 -335 -316
-412 -419 -59 -78 -153 -220 -153 -230 0 -3 -10 -22 -23 -43 -78 -127 -188
-426 -218 -592 -6 -36 -16 -78 -20 -95 -33 -108 -35 -538 -4 -731 l16 -102
-51 -88 c-84 -147 -115 -247 -132 -426 -41 -424 163 -810 533 -1007 153 -81
411 -141 543 -126 125 14 232 37 287 61 l56 25 109 -44 c136 -54 258 -88 444
-124 135 -26 162 -28 395 -27 255 0 267 2 530 53 84 16 294 91 410 146 330
155 634 396 831 660 178 237 302 483 375 744 62 220 79 348 79 588 0 111 4
213 10 227 5 14 27 41 48 60 49 44 141 220 175 336 52 173 53 436 1 595 -123
377 -409 637 -792 716 -129 26 -233 28 -371 4 l-113 -20 -47 28 c-76 45 -281
144 -356 172 -90 33 -228 70 -385 102 -106 21 -158 25 -345 28 -121 2 -247 0
-280 -5z m194 -1307 c5 -10 14 -44 21 -75 19 -95 31 -86 48 32 l7 55 263 3
262 2 0 -34 c0 -19 -9 -76 -19 -128 -36 -171 -83 -394 -122 -569 -11 -50 -10
-72 15 -210 70 -400 117 -681 122 -737 l7 -62 -262 0 -261 0 -9 23 c-4 12 -14
67 -21 122 -6 55 -16 107 -21 115 -4 8 -9 12 -9 7 0 -10 -39 -184 -51 -229
l-10 -38 -254 0 c-140 0 -256 3 -258 8 -3 4 25 129 62 277 125 496 166 670
164 685 -1 8 -15 80 -33 160 -48 223 -120 587 -120 607 0 2 106 3 235 3 213 0
235 -2 244 -17z"/>
</g>
</svg>
